<mxfile host="app.diagrams.net" modified="2023-02-23T23:25:10.483Z" agent="5.0 (Macintosh; Intel Mac OS X 10_15_7) AppleWebKit/537.36 (KHTML, like Gecko) Chrome/110.0.0.0 Safari/537.36" etag="i5qvtXV2rtmCgEgpTGdw" version="20.8.22" type="github">
  <diagram name="第 1 页" id="oInPe3MI26uBsckDQsy-">
    <mxGraphModel dx="954" dy="616" grid="1" gridSize="10" guides="1" tooltips="1" connect="1" arrows="1" fold="1" page="1" pageScale="1" pageWidth="827" pageHeight="1169" math="0" shadow="0">
      <root>
        <mxCell id="0" />
        <mxCell id="1" parent="0" />
        <mxCell id="OztaiHVoQztljuxzm43e-2" value="类加载器" style="rounded=1;whiteSpace=wrap;html=1;fillColor=#d5e8d4;strokeColor=#82b366;sketch=1;curveFitting=1;jiggle=2;fontSize=20;" vertex="1" parent="1">
          <mxGeometry x="100" y="120" width="150" height="90" as="geometry" />
        </mxCell>
        <mxCell id="OztaiHVoQztljuxzm43e-5" value="" style="rounded=1;whiteSpace=wrap;html=1;sketch=1;curveFitting=1;jiggle=2;fontSize=20;" vertex="1" parent="1">
          <mxGeometry x="100" y="260" width="560" height="310" as="geometry" />
        </mxCell>
        <mxCell id="OztaiHVoQztljuxzm43e-6" value="运行时数据区" style="text;html=1;strokeColor=none;fillColor=none;align=center;verticalAlign=middle;whiteSpace=wrap;rounded=1;fontSize=20;" vertex="1" parent="1">
          <mxGeometry x="285" y="280" width="190" height="30" as="geometry" />
        </mxCell>
        <mxCell id="OztaiHVoQztljuxzm43e-8" value="堆" style="rounded=1;whiteSpace=wrap;html=1;fillColor=#d5e8d4;strokeColor=#82b366;sketch=1;curveFitting=1;jiggle=2;fontSize=20;" vertex="1" parent="1">
          <mxGeometry x="125" y="320" width="325" height="90" as="geometry" />
        </mxCell>
        <mxCell id="OztaiHVoQztljuxzm43e-9" value="程序计数器" style="rounded=1;whiteSpace=wrap;html=1;sketch=1;fontSize=20;fillColor=#fff2cc;strokeColor=#d6b656;" vertex="1" parent="1">
          <mxGeometry x="490" y="320" width="120" height="90" as="geometry" />
        </mxCell>
        <mxCell id="OztaiHVoQztljuxzm43e-10" value="方法区" style="rounded=1;whiteSpace=wrap;html=1;sketch=1;fontSize=20;fillColor=#f8cecc;strokeColor=#b85450;" vertex="1" parent="1">
          <mxGeometry x="125" y="440" width="120" height="90" as="geometry" />
        </mxCell>
        <mxCell id="OztaiHVoQztljuxzm43e-11" value="虚拟机栈" style="rounded=1;whiteSpace=wrap;html=1;sketch=1;fontSize=20;fillColor=#dae8fc;strokeColor=#6c8ebf;" vertex="1" parent="1">
          <mxGeometry x="270" y="440" width="180" height="90" as="geometry" />
        </mxCell>
        <mxCell id="OztaiHVoQztljuxzm43e-12" value="本地方法栈" style="rounded=1;whiteSpace=wrap;html=1;sketch=1;fontSize=20;fillColor=#d5e8d4;strokeColor=#82b366;shadow=0;glass=0;" vertex="1" parent="1">
          <mxGeometry x="490" y="440" width="120" height="90" as="geometry" />
        </mxCell>
      </root>
    </mxGraphModel>
  </diagram>
</mxfile>
